# xmcd
#
# Track frame offsets: 
#        150
#        5537
#        21347
#        22130
#        30664
#        34200
#        37666
#        46570
#        50634
#        55455
#        70378
#        85040
#        95306
#        102454
#        107603
#        114831
#        119221
#        123213
#        136890
#        146749
#        153251
#        166853
#        180981
#        199729
#        208395
#        220726
#        231796
#        253007
#        264817
#        272503
#
# Disc length: 3688 seconds
#
# Revision: 0
# Processed by: cddbd v1.5.2PL0 Copyright (c) Steve Scherf et al.
# Submitted via: ExactAudioCopy v1.0b1
#
DISCID=9d0e661e
DTITLE=Elvis Presley - Live In Seattle  
DYEAR=1900
DGENRE=
TTITLE0=2001 Theme
TTITLE1=See See Rider
TTITLE2=When My Blue Moon Turns To Gold Again
TTITLE3=I Got A Woman
TTITLE4=Amen
TTITLE5=I Got A Woman (Reprise)
TTITLE6=Love Me Tender
TTITLE7=(Let Me Be Your) Teddy Bear
TTITLE8=Don't Be Cruel
TTITLE9=You Gave Me A Mountain
TTITLE10=Steamroller Blues
TTITLE11=You Don't Have To Say You Love Me
TTITLE12=Love Me
TTITLE13=Blue Suede Shoes
TTITLE14=Heartbreak Hotel
TTITLE15=Long Tall Sally
TTITLE16=Whole Lotta Shakin Goin On
TTITLE17=How Great Thou Art
TTITLE18=Johnny B Goode
TTITLE19=Hound Dog
TTITLE20=Fever
TTITLE21=What Now My Love
TTITLE22=Suspicious Minds
TTITLE23=Band Introduction
TTITLE24=I'll Remember You
TTITLE25=I Can't Stop Loving You
TTITLE26=An American Trilogy
TTITLE27=A Big Hunk Of Love
TTITLE28=Cant Help Falling In Love
TTITLE29=Closing Vamp
EXTD=
EXTT0=
EXTT1=
EXTT2=
EXTT3=
EXTT4=
EXTT5=
EXTT6=
EXTT7=
EXTT8=
EXTT9=
EXTT10=
EXTT11=
EXTT12=
EXTT13=
EXTT14=
EXTT15=
EXTT16=
EXTT17=
EXTT18=
EXTT19=
EXTT20=
EXTT21=
EXTT22=
EXTT23=
EXTT24=
EXTT25=
EXTT26=
EXTT27=
EXTT28=
EXTT29=
PLAYORDER=
